<?xml version="1.0" standalone="no"?>
<!DOCTYPE svg PUBLIC "-//W3C//DTD SVG 20010904//EN"
 "http://www.w3.org/TR/2001/REC-SVG-20010904/DTD/svg10.dtd">
<svg version="1.0" xmlns="http://www.w3.org/2000/svg"
 width="305.000000pt" height="64.000000pt" viewBox="0 0 305.000000 64.000000"
 preserveAspectRatio="xMidYMid meet">

<g transform="translate(0.000000,64.000000) scale(0.100000,-0.100000)"
fill="#000000" stroke="none">
<path fill="#ff0000" d="M193 557 c-11 -24 -45 -74 -74 -112 -49 -64 -54 -75 -57 -130 -3 -52
0 -65 25 -103 35 -54 107 -85 162 -70 87 24 141 92 136 170 -3 42 -18 68 -90
158 -50 63 -78 114 -68 124 4 3 2 6 -3 6 -6 0 -19 -19 -31 -43z m27 -227 c1
-21 4 -27 7 -15 10 46 15 51 26 25 8 -21 11 -22 14 -7 6 22 23 12 23 -14 0
-12 7 -19 19 -19 11 0 23 -5 27 -12 5 -8 -3 -9 -29 -5 -28 4 -37 2 -40 -11 -4
-13 -7 -11 -13 8 -7 22 -9 18 -19 -30 l-12 -55 -7 40 c-4 22 -11 54 -15 70
l-9 30 -1 -32 c-1 -37 -20 -54 -27 -26 -4 15 -12 19 -32 16 -15 -2 -20 0 -12
4 8 3 21 13 27 22 11 14 14 14 23 1 8 -12 10 -10 10 11 0 14 5 41 12 60 l12
34 7 -30 c4 -16 8 -46 9 -65z"/>
<path fill="#ff0000" d="M507 543 c-4 -3 -7 -21 -7 -40 l0 -33 84 0 c76 0 84 -2 89 -21 3 -11
1 -33 -4 -48 -9 -26 -13 -28 -58 -23 -42 4 -51 1 -60 -17 -17 -31 10 -80 80
-145 86 -80 178 -148 189 -141 20 12 8 31 -43 68 -29 21 -67 51 -86 67 l-34
29 36 40 c36 40 51 91 45 156 l-3 30 245 0 245 0 0 -35 0 -35 -172 -3 c-96 -1
-173 -7 -173 -12 0 -31 21 -60 44 -60 42 0 56 -10 56 -43 0 -17 9 -49 20 -71
29 -59 98 -136 115 -129 23 8 18 21 -25 70 -38 43 -45 66 -40 118 3 34 25 46
89 52 85 8 91 1 91 -106 0 -86 0 -87 35 -121 42 -41 44 -38 47 95 l3 99 35 24
c71 48 112 -1 71 -85 l-22 -46 29 -30 30 -30 16 31 c20 38 21 114 2 150 -25
48 -63 76 -114 82 l-47 5 0 40 0 40 114 3 c111 3 113 3 107 25 -3 12 -6 30 -6
40 0 16 -31 17 -508 17 -280 0 -512 -3 -515 -7z"/>
<path fill="#ff0000" d="M1750 510 l0 -40 120 0 120 0 0 -30 0 -30 -65 0 c-78 0 -117 -17
-135 -59 -35 -86 50 -202 159 -217 42 -6 50 -11 84 -60 40 -57 43 -59 66 -45
11 7 7 19 -22 58 -35 48 -36 50 -18 69 32 32 34 59 9 89 -18 20 -33 27 -61 27
-39 0 -67 -15 -67 -37 0 -42 -68 -42 -96 0 -14 21 -14 30 -4 55 15 35 27 39
140 42 l85 3 0 65 1 65 69 0 70 0 5 -172 5 -172 29 -30 c17 -17 33 -31 38 -31
4 0 9 91 10 203 l3 202 178 3 178 2 -3 -47 -3 -48 -115 -5 -115 -5 -3 -33 c-6
-60 72 -162 101 -133 6 6 11 30 11 53 l1 43 63 3 62 3 0 -80 c0 -79 1 -82 37
-121 20 -23 40 -37 44 -33 5 5 10 96 11 203 l3 195 38 3 c37 3 38 4 35 40 l-3
37 -532 3 -533 2 0 -40z"/>
</g>
</svg>
